# xmcd CD database file
#
# Track frame offsets:
#	150
#	17155
#	39415
#
# Disc length: 1074 seconds
#
# Revision: 0
# Processed by: cddbd v1.5PL3 Copyright (c) Steve Scherf et al.
# Submitted via: CDex 1.51
#
DISCID=1a043003
DTITLE=ACIDMAN - 造花が笑う
DYEAR=2002
DGENRE=Rock
TTITLE0=造花が笑う
TTITLE1=scene of 創#1
TTITLE2=CD-Extra
EXTD=YEAR: 2002
EXTT0=
EXTT1=
EXTT2=
PLAYORDER=
